<svg id="Capa_1" data-name="Capa 1" xmlns="http://www.w3.org/2000/svg" viewBox="0 0 759 759"><defs><style>.cls-1,.cls-2,.cls-3{fill:#fff;}.cls-3{stroke:#fff;stroke-miterlimit:10;stroke-width:2px;}</style></defs><polygon class="cls-1" points="171.85 533.45 0 121.73 25.06 0 200.49 429.62 282.83 218.39 354.44 221.97 231.3 533.45 171.85 533.45"/><polygon class="cls-2" points="411.72 218.39 288.89 533.45 343.74 533.45 469.88 218.39 411.72 218.39"/><polygon class="cls-2" points="528.38 218.39 406.81 533.45 474.45 533.45 558.51 318.64 723.2 759 759 644.43 586.88 218.39 528.38 218.39"/><path class="cls-3" d="M140.35,663.33a51.67,51.67,0,0,1-17.67-2.94,47.08,47.08,0,0,1-14.08-7.79l6.9-6.42a38.53,38.53,0,0,0,11.39,6.58,38,38,0,0,0,13.6,2.49q9,0,13.94-3.26t5-8.57a8.61,8.61,0,0,0-2-6,16.34,16.34,0,0,0-5.39-3.76c-2.25-1-4.81-2.06-7.66-3.09l-13-4.54a51.81,51.81,0,0,1-8.49-3.76,22.67,22.67,0,0,1-7-6,14.21,14.21,0,0,1-2.83-8.95,15,15,0,0,1,3.66-9.91,24.31,24.31,0,0,1,10.15-6.86,40.77,40.77,0,0,1,14.63-2.48,44.29,44.29,0,0,1,15.05,2.48,39.43,39.43,0,0,1,11.74,6.48L162,603a32.33,32.33,0,0,0-20.57-6.86q-7.59,0-12.22,2.88t-4.62,7.74a7.7,7.7,0,0,0,2.28,5.7,17.68,17.68,0,0,0,5.73,3.71c2.3.95,4.64,1.84,7,2.65l12.84,4.42a49.75,49.75,0,0,1,9.45,4.26,20.91,20.91,0,0,1,6.7,6.09,15.44,15.44,0,0,1,2.48,9,16.41,16.41,0,0,1-3.72,10.45,25.06,25.06,0,0,1-10.63,7.47A44.21,44.21,0,0,1,140.35,663.33Z"/><path class="cls-3" d="M202.75,662V589.43h11.46V662Z"/><path class="cls-3" d="M252.86,662V589.43h13.8l17.4,38.72c1.1,2.51,2.18,5,3.24,7.58s2.14,5.07,3.25,7.57h.55c1.1-2.5,2.14-5,3.11-7.57s2-5.07,3.1-7.58l17.12-38.72h13.94V662H317.61V622.07c0-3.25.18-6.84.55-10.79s.69-7.5,1-10.67h-.55l-7.18,16.48L294.27,654.7h-7.59l-17.12-37.61-7.17-16.48h-.56q.42,4.75.9,10.67c.32,4,.48,7.54.48,10.79V662Z"/><path class="cls-3" d="M367,662V589.43h25.81a70.55,70.55,0,0,1,17.81,2,23.75,23.75,0,0,1,11.88,6.69q4.28,4.7,4.27,12.66,0,11.4-9.24,16.93t-24.16,5.53H378.49V662Zm11.46-36.28H392q11.88,0,17.61-3.6c3.81-2.39,5.73-6.17,5.73-11.34s-2-8.86-6-10.89-10-3-17.88-3h-13Z"/><path class="cls-3" d="M459,662V589.43h11.46v64.72h39.62V662Z"/><path class="cls-3" d="M539.87,662V589.43h52.18v7.75H551.33V620H585.7v7.86H551.33v26.33h42.1V662Z"/></svg>